# xmcd CD database file
#
# Track frame offsets:
#	153
#	30683
#	58051
#	75692
#	98335
#	132907
#	162036
#
# Disc length: 2589 seconds
#
# Revision: 0
# Processed by: cddbd v1.5.2PL0 Copyright (c) Steve Scherf et al.
# Submitted via: CDex 1.70beta2
#
DISCID=4b0a1b07
DTITLE=Aki Rissanen - Another North
DYEAR=2017
DGENRE=Jazz
TTITLE0=Blind Desert
TTITLE1=John's Sons
TTITLE2=New Life And Other Beginnings
TTITLE3=Etude 5: Arc-en-ciel Reimagined
TTITLE4=Nature Of The Beast
TTITLE5=Before The Aftermath 
TTITLE6=Hubble Bubble
EXTD=YEAR: 2017
EXTT0=
EXTT1=
EXTT2=
EXTT3=
EXTT4=
EXTT5=
EXTT6=
PLAYORDER=
